<svg width="394" height="251" viewBox="0 0 394 251" fill="none"
    xmlns="http://www.w3.org/2000/svg">
    <g clip-path="url(#clip0)">
        <path d="M315.566 187.934H17.1102V188.994H315.566V187.934Z" fill="#3F3D56"/>
        <path d="M341.931 0H0V166.536H341.931V0Z" fill="#3F3D56"/>
        <path opacity="0.1" d="M341.931 12.8105V8.2353H331.417V0H326.846V8.2353H15.0852V0H10.5139V8.2353H0V12.8105H10.5139V153.726H0V158.301H10.5139V166.536H15.0852V158.301H326.846V166.536H331.417V158.301H341.931V153.726H331.417V12.8105H341.931ZM326.846 153.726H15.0852V12.8105H326.846L326.846 153.726Z" fill="black"/>
        <path d="M205.047 21.9608H151.133V73.2893H205.047V21.9608Z" fill="#D0CDE1"/>
        <path d="M198.92 28.0926H157.259V59.9781H198.92V28.0926Z" fill="#6C63FF"/>
        <path d="M181.032 33.3326H166.427V47.9503H181.032V33.3326Z" fill="black"/>
        <path d="M172.018 36.988V54.7381H189.753V36.988H172.018ZM188.983 53.9682H172.787V37.7579H188.983V53.9682Z" fill="#3F3D56"/>
        <path d="M179.879 63.1429H157.218V64.3366H179.879V63.1429Z" fill="black"/>
        <path d="M178.09 27.3324C179.407 27.3324 180.475 26.2635 180.475 24.945C180.475 23.6265 179.407 22.5576 178.09 22.5576C176.772 22.5576 175.704 23.6265 175.704 24.945C175.704 26.2635 176.772 27.3324 178.09 27.3324Z" fill="#3F3D56"/>
        <path d="M225.38 95.9919H171.466V147.32H225.38V95.9919Z" fill="#D0CDE1"/>
        <path d="M219.254 102.124H177.593V134.009H219.254V102.124Z" fill="#6C63FF"/>
        <path d="M200.212 137.771H177.552V138.965H200.212V137.771Z" fill="black"/>
        <path d="M200.212 141.352H177.552V142.546H200.212V141.352Z" fill="black"/>
        <path d="M185.006 122.85C187.641 122.85 189.776 120.712 189.776 118.075C189.776 115.438 187.641 113.3 185.006 113.3C182.371 113.3 180.235 115.438 180.235 118.075C180.235 120.712 182.371 122.85 185.006 122.85Z" fill="#3F3D56"/>
        <path d="M198.423 122.85C201.058 122.85 203.194 120.712 203.194 118.075C203.194 115.438 201.058 113.3 198.423 113.3C195.789 113.3 193.653 115.438 193.653 118.075C193.653 120.712 195.789 122.85 198.423 122.85Z" fill="black"/>
        <path d="M211.841 122.85C214.476 122.85 216.612 120.712 216.612 118.075C216.612 115.438 214.476 113.3 211.841 113.3C209.206 113.3 207.07 115.438 207.07 118.075C207.07 120.712 209.206 122.85 211.841 122.85Z" fill="#FF6584"/>
        <path d="M198.423 101.363C199.741 101.363 200.809 100.295 200.809 98.9761C200.809 97.6576 199.741 96.5887 198.423 96.5887C197.106 96.5887 196.038 97.6576 196.038 98.9761C196.038 100.295 197.106 101.363 198.423 101.363Z" fill="#3F3D56"/>
        <path d="M142.868 79.9543H88.9539V131.283H142.868V79.9543Z" fill="#D0CDE1"/>
        <path d="M136.741 86.0862H95.0804V117.972H136.741V86.0862Z" fill="#6C63FF"/>
        <path d="M113.137 115.879C118.723 115.879 123.252 111.346 123.252 105.755C123.252 100.164 118.723 95.632 113.137 95.632C107.551 95.632 103.022 100.164 103.022 105.755C103.022 111.346 107.551 115.879 113.137 115.879Z" fill="black"/>
        <path d="M116.118 113.564C113.61 113.564 111.158 112.819 109.073 111.425C106.987 110.03 105.362 108.048 104.402 105.729C103.442 103.409 103.191 100.857 103.68 98.3953C104.17 95.9333 105.378 93.6717 107.151 91.8967C108.925 90.1217 111.184 88.9128 113.644 88.4231C116.104 87.9334 118.654 88.1847 120.971 89.1454C123.288 90.106 125.269 91.7328 126.662 93.82C128.056 95.9072 128.8 98.3611 128.8 100.871C128.796 104.236 127.458 107.463 125.081 109.842C122.704 112.221 119.48 113.56 116.118 113.564ZM116.118 88.6408C113.701 88.6408 111.339 89.3581 109.329 90.702C107.319 92.0459 105.753 93.9561 104.828 96.191C103.903 98.4258 103.661 100.885 104.133 103.258C104.604 105.63 105.768 107.809 107.477 109.52C109.186 111.23 111.364 112.395 113.734 112.867C116.105 113.339 118.562 113.097 120.795 112.171C123.028 111.245 124.936 109.678 126.279 107.666C127.622 105.655 128.338 103.29 128.338 100.871C128.335 97.6288 127.046 94.52 124.755 92.2271C122.464 89.9342 119.358 88.6444 116.118 88.6408Z" fill="#3F3D56"/>
        <path d="M117.7 124.718H95.0392V125.911H117.7V124.718Z" fill="black"/>
        <path d="M126.645 121.136H95.0392V122.33H126.645V121.136Z" fill="black"/>
        <path d="M115.911 85.3259C117.228 85.3259 118.296 84.2571 118.296 82.9385C118.296 81.62 117.228 80.5512 115.911 80.5512C114.594 80.5512 113.526 81.62 113.526 82.9385C113.526 84.2571 114.594 85.3259 115.911 85.3259Z" fill="#3F3D56"/>
        <path d="M83.6107 21.0457H29.6966V72.3742H83.6107V21.0457Z" fill="#D0CDE1"/>
        <path d="M77.4841 27.1776H35.8232V59.0631H77.4841V27.1776Z" fill="#6C63FF"/>
        <path d="M61.1349 52.1392H52.1725V54.7974H61.1349V52.1392Z" fill="#3F3D56"/>
        <path d="M71.9701 31.4433H41.3373V32.5825H71.9701V31.4433Z" fill="#3F3D56"/>
        <path d="M71.9701 35.0508H41.3373V36.19H71.9701V35.0508Z" fill="#3F3D56"/>
        <path d="M71.9701 38.6584H41.3373V39.7976H71.9701V38.6584Z" fill="#3F3D56"/>
        <path d="M71.9701 42.2659H41.3373V43.4052H71.9701V42.2659Z" fill="#3F3D56"/>
        <path d="M71.9701 45.8735H41.3373V47.0127H71.9701V45.8735Z" fill="#3F3D56"/>
        <path d="M58.4427 62.2279H35.782V63.4216H58.4427V62.2279Z" fill="black"/>
        <path d="M67.3877 65.2121H35.782V66.4058H67.3877V65.2121Z" fill="black"/>
        <path d="M56.6537 26.4174C57.9711 26.4174 59.039 25.3485 59.039 24.03C59.039 22.7115 57.9711 21.6426 56.6537 21.6426C55.3363 21.6426 54.2683 22.7115 54.2683 24.03C54.2683 25.3485 55.3363 26.4174 56.6537 26.4174Z" fill="#3F3D56"/>
        <path d="M248.807 54.5772L287.853 57.4485L298.895 58.2605L298.209 57.5742L300.283 87.5957L301.32 102.606C301.362 103.213 301.405 103.819 301.445 104.426C301.479 104.93 301.618 105.416 301.021 105.541C299.835 105.788 298.599 105.891 297.397 106.043C294.953 106.352 292.504 106.611 290.049 106.822C280.227 107.666 270.354 107.728 260.523 107.007C258.066 106.827 255.614 106.598 253.166 106.32C252.256 106.217 251.126 106.178 250.793 105.156C250.45 104.102 250.391 102.905 250.236 101.812C249.546 96.9417 249.076 92.0467 248.825 87.1268C248.315 77.3214 248.662 67.4901 249.863 57.7453C250.01 56.5519 250.17 55.3604 250.345 54.1707C250.471 53.3067 249.149 52.9336 249.022 53.8058C247.548 63.8761 246.981 74.0586 247.328 84.2304C247.505 89.3194 247.912 94.3934 248.549 99.4523C248.71 100.73 248.885 102.006 249.074 103.28C249.225 104.294 249.262 105.489 249.865 106.361C250.446 107.201 251.423 107.471 252.383 107.599C253.604 107.762 254.834 107.879 256.061 107.998C266.244 108.992 276.492 109.144 286.7 108.452C289.269 108.278 291.834 108.05 294.395 107.77C295.656 107.631 296.916 107.48 298.174 107.316C298.79 107.235 299.405 107.152 300.021 107.066C300.595 107.025 301.164 106.926 301.718 106.77C302.873 106.353 302.873 105.238 302.801 104.198L302.534 100.332L302 92.5993L299.848 61.4406L299.58 57.5742C299.575 57.3938 299.502 57.2222 299.374 57.0946C299.247 56.967 299.075 56.893 298.895 56.8879L259.849 54.0166L248.807 53.2046C247.926 53.1399 247.931 54.5128 248.807 54.5772V54.5772Z" fill="#D0CDE1"/>
        <path d="M265.54 70.7811C265.737 70.2572 265.241 71.3857 265.49 70.8864C265.556 70.7537 265.618 70.6196 265.688 70.4889C265.828 70.2288 265.983 69.9771 266.152 69.7351C266.32 69.4939 266.576 69.4009 266.078 69.8205C266.181 69.7148 266.278 69.603 266.367 69.4855C266.599 69.2306 266.847 68.9903 267.109 68.7658C267.297 68.6043 267.652 68.4669 267.016 68.8245C267.142 68.7538 267.258 68.6479 267.379 68.5669C267.625 68.401 267.88 68.2474 268.142 68.1062C268.273 68.0355 268.406 67.9681 268.54 67.9039C268.768 67.7948 269.148 67.7573 268.43 67.9412C268.738 67.8622 269.036 67.7163 269.344 67.6287C269.606 67.5543 269.871 67.4917 270.139 67.4408C270.378 67.3957 270.812 67.4298 269.995 67.4486C270.141 67.4452 270.291 67.417 270.437 67.4071C270.732 67.387 271.027 67.3826 271.322 67.3939C271.469 67.3996 271.616 67.4142 271.763 67.423C272.252 67.4522 271.023 67.2871 271.763 67.4282C272.053 67.4834 272.34 67.5557 272.621 67.6449C272.758 67.7036 272.898 67.7528 273.041 67.7924L272.662 67.6288C272.755 67.6693 272.847 67.7116 272.939 67.7558C273.21 67.8875 273.474 68.0353 273.729 68.1983C273.856 68.2794 273.977 68.3675 274.101 68.4522C274.492 68.7179 273.578 68.0049 274.132 68.4906C274.319 68.6554 274.5 68.8285 274.672 69.0098C274.776 69.1185 274.876 69.2299 274.974 69.344C275.139 69.5358 275.265 69.8862 274.921 69.2582C275.236 69.833 275.628 70.3544 275.924 70.947C276.177 71.4525 275.694 70.3192 275.886 70.8513C275.938 70.9948 275.993 71.1365 276.042 71.2811C276.139 71.5703 276.224 71.8636 276.294 72.1609C276.365 72.4587 276.4 72.7628 276.465 73.0608C276.285 72.2405 276.417 72.715 276.435 72.9379C276.451 73.1406 276.461 73.3438 276.464 73.5473C276.468 73.8011 276.462 74.055 276.445 74.3087C276.436 74.4573 276.402 74.6152 276.404 74.7636C276.394 73.9934 276.46 74.377 276.412 74.6357C276.357 74.9352 276.286 75.2315 276.199 75.5235C276.156 75.6697 276.109 75.8147 276.057 75.9583C276.012 76.0857 275.964 76.2122 275.913 76.3378C276.06 75.9941 276.072 75.9615 275.948 76.2398C275.191 77.7559 274.247 79.1696 273.502 80.6909C271.654 84.4841 271.033 88.7593 271.724 92.9223C271.914 93.6127 272.367 94.2014 272.984 94.5628C273.625 94.9302 274.385 95.0297 275.098 94.8395C276.644 94.3388 277.252 92.9879 277.014 91.4627C276.93 90.9255 277.058 91.9418 277.003 91.4008C276.979 91.1688 276.956 90.9372 276.939 90.7046C276.907 90.2395 276.893 89.7738 276.899 89.3072C276.904 88.9076 276.924 88.5086 276.957 88.1101C276.958 87.8764 276.982 87.6434 277.029 87.4145C277.028 87.416 276.941 87.9665 277 87.6496C277.025 87.5189 277.043 87.3865 277.066 87.2554C277.224 86.3698 277.451 85.4982 277.747 84.6487C277.813 84.4601 277.885 84.2739 277.954 84.0865C278.137 83.5919 277.764 84.4835 277.985 84.0048C278.182 83.5778 278.387 83.1564 278.612 82.743C279.556 81.007 280.624 79.3804 281.312 77.5131C281.836 76.0485 282.044 74.4889 281.92 72.9379C281.666 69.7363 280.309 66.4878 277.782 64.4149C276.475 63.3266 274.931 62.5624 273.274 62.1845C271.616 61.8066 269.894 61.8256 268.245 62.2401C266.436 62.6779 264.762 63.5521 263.368 64.7864C261.975 66.0208 260.904 67.5779 260.25 69.3216C259.744 70.6681 260.812 72.3899 262.166 72.6984C263.726 73.0541 264.997 72.2228 265.54 70.7812V70.7811Z" fill="#D0CDE1"/>
        <path d="M275.122 103.487C275.573 103.487 276.014 103.353 276.389 103.102C276.764 102.851 277.056 102.495 277.229 102.078C277.401 101.661 277.446 101.202 277.358 100.76C277.27 100.317 277.053 99.9105 276.734 99.5914C276.415 99.2722 276.009 99.0549 275.567 98.9669C275.125 98.8788 274.666 98.924 274.25 99.0967C273.833 99.2694 273.477 99.5619 273.227 99.9371C272.976 100.312 272.842 100.754 272.842 101.205C272.849 101.808 273.091 102.384 273.517 102.811C273.944 103.237 274.52 103.48 275.122 103.487Z" fill="#D0CDE1"/>
        <path d="M27.9188 183.302H15.1192V196.113H27.9188V183.302Z" fill="#6C63FF"/>
        <path d="M35.6899 188.792H20.1476V173.237H35.6899V188.792ZM20.8234 188.116H35.0142V173.913H20.8234V188.116Z" fill="#3F3D56"/>
        <path d="M312.904 114.15L311.075 119.641C311.075 119.641 299.647 132.909 307.875 134.739C316.103 136.569 317.018 120.556 317.018 120.556L319.303 115.98L312.904 114.15Z" fill="#FFB8B8"/>
        <path d="M325.703 47.8105C325.703 47.8105 322.96 47.353 322.046 58.3334C321.132 69.3138 320.675 88.5295 320.675 88.5295L310.161 115.523L323.417 119.641L329.817 88.987L325.703 47.8105Z" fill="#575A89"/>
        <path d="M319.761 211.144L318.389 219.837H330.732L330.275 211.144H319.761Z" fill="#FFB8B8"/>
        <path d="M359.531 220.752L358.616 232.647L366.845 233.562V219.837L359.531 220.752Z" fill="#FFB8B8"/>
        <path d="M324.789 97.6798L314.275 158.072L317.018 212.974H331.189V163.105L344.902 137.484L355.874 169.51L358.616 223.039L374.159 220.294L370.502 168.137C370.502 168.137 367.759 98.5948 365.016 97.6798C362.273 96.7648 324.789 97.6798 324.789 97.6798Z" fill="#2F2E41"/>
        <path d="M321.132 217.092C321.132 217.092 321.132 212.516 317.475 215.262C313.818 218.007 309.247 223.039 309.247 223.039C309.247 223.039 291.876 232.647 304.218 234.02C316.561 235.392 324.332 227.615 324.332 227.615L325.703 228.987C325.703 228.987 333.017 227.615 333.017 225.784C332.964 224.251 332.812 222.723 332.56 221.209C332.56 221.209 331.599 213.449 330.479 215.041C329.36 216.634 322.96 219.837 321.132 217.092Z" fill="#2F2E41"/>
        <path d="M367.302 229.902C367.302 229.902 359.073 225.784 357.245 229.445C355.416 233.105 354.045 240.425 354.045 240.425C354.045 240.425 348.102 251.863 358.616 250.948C369.13 250.033 368.673 244.085 368.673 242.713C368.673 241.34 368.216 238.137 368.673 236.765C369.13 235.392 367.302 229.902 367.302 229.902Z" fill="#2F2E41"/>
        <path d="M349.245 29.7386C356.314 29.7386 362.045 24.0032 362.045 16.9281C362.045 9.85312 356.314 4.11768 349.245 4.11768C342.176 4.11768 336.446 9.85312 336.446 16.9281C336.446 24.0032 342.176 29.7386 349.245 29.7386Z" fill="#FFB8B8"/>
        <path d="M340.788 23.1046L340.331 39.5751L356.788 38.2026V23.1046H340.788Z" fill="#FFB8B8"/>
        <path d="M357.702 29.9673C357.702 29.9673 349.931 35 347.645 35.9151C345.36 36.8301 340.331 32.2549 340.331 32.2549C340.331 32.2549 338.96 33.17 338.96 34.085C338.96 35 338.046 38.6602 338.046 38.6602L327.075 74.804L327.989 100.425C327.989 100.425 361.359 103.628 365.016 99.5099C368.673 95.3922 363.188 36.3726 363.188 36.3726L357.702 29.9673Z" fill="#D0CDE1"/>
        <path opacity="0.1" d="M355.416 39.5752C355.416 39.5752 343.074 44.1503 338.96 40.0327C338.96 40.0327 344.902 41.4053 355.416 39.5752Z" fill="black"/>
        <path d="M387.872 138.856C382.844 142.059 366.387 146.177 366.387 146.177C366.387 146.177 364.591 107.448 358.159 101.34C351.764 95.2596 341.323 51.4249 350.713 43.8026C350.754 43.7634 350.799 43.7267 350.845 43.6928L356.788 29.9673C356.788 29.9673 357.702 28.5948 359.531 30.4248C361.01 32.0112 362.384 33.6923 363.645 35.4575L363.905 35.5627L376.444 40.4902L371.416 62.9085C371.416 62.9085 392.901 135.654 387.872 138.856Z" fill="#575A89"/>
        <path opacity="0.1" d="M363.905 35.5628L360.445 48.268L350.713 43.8026C350.754 43.7634 350.799 43.7267 350.845 43.6928L356.788 29.9673C356.788 29.9673 357.702 28.5948 359.531 30.4248C361.01 32.0112 362.384 33.6923 363.645 35.4575L363.905 35.5628Z" fill="black"/>
        <path d="M340.103 32.0262L338.731 47.5817L338.658 48.2909L328.217 147.778C328.217 147.778 319.075 144.575 315.875 140.915C312.675 137.255 323.189 96.536 323.189 96.536L324.103 45.2942C324.103 45.2942 332.213 39.5798 335.527 36.4412C336.304 35.7092 336.816 35.119 336.903 34.7713C337.36 32.9412 340.103 32.0262 340.103 32.0262Z" fill="#575A89"/>
        <path opacity="0.1" d="M340.103 32.0262L338.731 47.5817L338.658 48.2909L332.103 47.353L335.527 36.4412C336.304 35.7092 336.816 35.119 336.903 34.7713C337.36 32.9412 340.103 32.0262 340.103 32.0262Z" fill="black"/>
        <path d="M364.559 109.118L359.531 113.693C359.531 113.693 361.816 123.301 364.559 123.758C364.559 123.758 366.387 121.013 366.845 118.726C367.302 116.438 371.416 114.15 371.416 114.15L364.559 109.118Z" fill="#FFB8B8"/>
        <path d="M370.502 39.5752L376.444 40.4902C376.444 40.4902 396.101 73.8889 393.815 85.7844C391.529 97.6798 373.244 118.268 373.244 118.268L361.816 109.118L378.73 86.2419L370.045 58.7909L370.502 39.5752Z" fill="#575A89"/>
        <path d="M336.417 18.367C336.417 18.367 336.417 7.06949 339.16 4.50189H342.451C342.451 4.50189 346.292 -1.14686 351.229 0.907231C356.167 2.96132 364.396 6.55598 363.847 12.2047C363.299 17.8535 361.588 21.5033 361.588 21.5033C361.588 21.5033 360.673 21.5033 358.636 18.4325C355.912 14.329 362.201 15.6081 353.972 14.0675C345.743 12.527 340.806 10.4729 339.709 12.527C338.611 14.5811 336.417 18.367 336.417 18.367Z" fill="#2F2E41"/>
        <path d="M342.397 5.2686C342.397 5.2686 342.836 1.96685 344.64 1.25592L342.397 5.2686Z" fill="#2F2E41"/>
        <path d="M342.389 5.94775C342.389 5.94775 341.474 2.74554 342.844 1.37238L342.389 5.94775Z" fill="#2F2E41"/>
    </g>
    <defs>
        <clipPath id="clip0">
            <rect width="394" height="251" fill="white"/>
        </clipPath>
    </defs>
</svg>
