<svg width="30" height="28" viewBox="0 0 30 28" fill="none"
    xmlns="http://www.w3.org/2000/svg">
    <path d="M5.99189 7.74088L8.31647 7.02921C8.49965 6.97319 8.69207 6.9538 8.88275 6.97215C9.07342 6.9905 9.25861 7.04622 9.42775 7.13614C9.59689 7.22606 9.74666 7.34841 9.86851 7.49621C9.99037 7.64401 10.0819 7.81436 10.1379 7.99754C10.1939 8.18072 10.2133 8.37314 10.195 8.56382C10.1766 8.75449 10.1209 8.93968 10.031 9.10882C9.94108 9.27796 9.81873 9.42773 9.67093 9.54958C9.52313 9.67143 9.35278 9.76298 9.1696 9.819L3.59147 11.5252C3.4082 11.5813 3.21568 11.6006 3.02492 11.5822C2.83416 11.5638 2.6489 11.508 2.47974 11.4179C2.31057 11.3278 2.16082 11.2053 2.03904 11.0573C1.91726 10.9093 1.82584 10.7388 1.77001 10.5555L0.0637646 4.97733C0.00774761 4.79415 -0.0116408 4.60173 0.00670631 4.41106C0.0250534 4.22039 0.080777 4.03519 0.170695 3.86606C0.352293 3.52447 0.662149 3.26901 1.0321 3.15588C1.40205 3.04274 1.80179 3.08121 2.14338 3.26281C2.31251 3.35272 2.46229 3.47508 2.58414 3.62288C2.70599 3.77068 2.79754 3.94103 2.85356 4.12421L3.49522 6.22567C7.00689 0.816709 13.9733 -1.50933 20.1581 1.02525C22.0077 1.78338 23.6687 2.93763 25.0243 4.40677C26.3798 5.87592 27.3969 7.62427 28.004 9.52879C28.0662 9.71226 28.0913 9.90628 28.0777 10.0995C28.0641 10.2928 28.0121 10.4814 27.9249 10.6544C27.8376 10.8273 27.7167 10.9811 27.5693 11.1069C27.4219 11.2326 27.2509 11.3277 27.0663 11.3866C26.8818 11.4455 26.6873 11.467 26.4944 11.4499C26.3014 11.4328 26.1137 11.3775 25.9424 11.2871C25.771 11.1967 25.6194 11.073 25.4964 10.9234C25.3734 10.7737 25.2814 10.6011 25.2258 10.4155C24.6097 8.48079 23.459 6.75983 21.9065 5.45129C20.354 4.14275 18.4631 3.29999 16.452 3.02032C14.441 2.74065 12.3919 3.03548 10.5412 3.87077C8.6906 4.70605 7.11396 6.04773 5.99335 7.74088H5.99189ZM23.9688 19.6919L21.3802 20.338C21.1928 20.3894 20.997 20.4028 20.8043 20.3774C20.6116 20.3521 20.4259 20.2884 20.2582 20.1903C20.0904 20.0922 19.944 19.9615 19.8274 19.8059C19.7109 19.6504 19.6266 19.4731 19.5796 19.2846C19.5325 19.096 19.5237 18.8999 19.5535 18.7079C19.5833 18.5158 19.6512 18.3317 19.7532 18.1662C19.8552 18.0008 19.9892 17.8574 20.1474 17.7445C20.3056 17.6316 20.4848 17.5515 20.6744 17.5088L25.9871 16.1832C26.2639 16.0515 26.5753 16.0106 26.8767 16.0665C27.1671 16.1047 27.4393 16.2295 27.6578 16.4246C27.8763 16.6196 28.031 16.876 28.1017 17.1603L29.5133 22.8186C29.597 23.1902 29.5319 23.5798 29.332 23.9041C29.132 24.2283 28.8132 24.4615 28.4436 24.5537C28.074 24.6459 27.683 24.5898 27.3542 24.3975C27.0254 24.2051 26.7849 23.8918 26.6842 23.5244L26.2029 21.5965C24.7988 23.6171 22.8757 25.2216 20.6362 26.241C18.3967 27.2604 15.9237 27.6569 13.4778 27.3888C11.0318 27.1207 8.70347 26.1979 6.73798 24.7175C4.7725 23.2372 3.24265 21.2542 2.3096 18.9773L1.93043 18.0527C1.78384 17.6948 1.78546 17.2933 1.93492 16.9365C2.08438 16.5797 2.36945 16.2969 2.72741 16.1504C3.08537 16.0038 3.4869 16.0054 3.84367 16.1548C4.20044 16.3043 4.48322 16.5894 4.62981 16.9473L5.00897 17.8705C5.75236 19.6844 6.97699 21.2608 8.5507 22.4297C10.1244 23.5986 11.9875 24.3155 13.9388 24.5032C15.8901 24.6908 17.8556 24.3419 19.6232 23.4943C21.3908 22.6467 22.8934 21.3324 23.9688 19.6934V19.6919Z" fill="white"/>
</svg>
