<svg width="37" height="30" viewBox="0 0 37 30" fill="none"
    xmlns="http://www.w3.org/2000/svg">
    <path d="M33.3 3.75H18.5L15.8915 1.10625C15.1885 0.39375 14.245 0 13.2645 0H3.7C1.6465 0 0.0185 1.66875 0.0185 3.75L0 26.25C0 28.3312 1.6465 30 3.7 30H33.3C35.335 30 37 28.3125 37 26.25V7.5C37 5.4375 35.335 3.75 33.3 3.75ZM29.6 18.75H25.9V22.5C25.9 23.5312 25.0675 24.375 24.05 24.375C23.0325 24.375 22.2 23.5312 22.2 22.5V18.75H18.5C17.4825 18.75 16.65 17.9062 16.65 16.875C16.65 15.8438 17.4825 15 18.5 15H22.2V11.25C22.2 10.2188 23.0325 9.375 24.05 9.375C25.0675 9.375 25.9 10.2188 25.9 11.25V15H29.6C30.6175 15 31.45 15.8438 31.45 16.875C31.45 17.9062 30.6175 18.75 29.6 18.75Z" fill="white"/>
</svg>
