<svg width="35" height="36" viewBox="0 0 35 36" fill="none"
    xmlns="http://www.w3.org/2000/svg">
    <g clip-path="url(#clip0)">
        <path d="M34.5195 25.2442C35.1602 25.9033 35.1602 26.9717 34.5195 27.6307L29.0508 33.2546C28.0247 34.31 26.25 33.5703 26.25 32.0613V29.25H22.2315C22.119 29.25 22.0077 29.2262 21.9046 29.1801C21.8014 29.134 21.7085 29.0665 21.6318 28.982L16.8086 23.6666L20.4544 19.6488L24.0625 23.625H26.25V20.8138C26.25 19.3065 28.0234 18.564 29.0508 19.6206L34.5195 25.2442ZM0.820312 12.375H6.5625L10.1706 16.3512L13.8164 12.3334L8.99322 7.01803C8.91647 6.93344 8.82362 6.866 8.72045 6.81989C8.61728 6.77378 8.50599 6.74999 8.39351 6.75H0.820312C0.367295 6.75 0 7.12779 0 7.59375V11.5313C0 11.9972 0.367295 12.375 0.820312 12.375ZM26.25 12.375V15.1864C26.25 16.6953 28.0247 17.435 29.0508 16.3797L34.5195 10.7558C35.1602 10.0967 35.1602 9.02827 34.5195 8.3693L29.0508 2.74563C28.0234 1.68898 26.25 2.43155 26.25 3.93884V6.75H22.2315C22.119 6.75001 22.0077 6.77381 21.9046 6.81992C21.8014 6.86603 21.7085 6.93346 21.6318 7.01803L6.5625 23.625H0.820312C0.367295 23.625 0 24.0028 0 24.4688V28.4063C0 28.8722 0.367295 29.25 0.820312 29.25H8.39351C8.62087 29.25 8.83805 29.1529 8.99322 28.982L24.0625 12.375H26.25Z" fill="white"/>
    </g>
    <defs>
        <clipPath id="clip0">
            <rect width="35" height="36" fill="white"/>
        </clipPath>
    </defs>
</svg>
