<svg width="31" height="30" viewBox="0 0 31 30" fill="none"
    xmlns="http://www.w3.org/2000/svg">
    <path d="M25.0496 1.68417C24.4004 1.0825 23.5292 0.75 22.6238 0.75H3.54167C2.63551 0.75 1.76647 1.08363 1.12572 1.6775C0.484969 2.27136 0.125 3.07681 0.125 3.91667V26.0833C0.125 27.825 1.6625 29.25 3.54167 29.25H27.4583C29.3375 29.25 30.875 27.825 30.875 26.0833V8.3975C30.875 7.55833 30.5163 6.75083 29.8671 6.165L25.0496 1.68417ZM15.5 26.0833C12.6642 26.0833 10.375 23.9617 10.375 21.3333C10.375 18.705 12.6642 16.5833 15.5 16.5833C18.3358 16.5833 20.625 18.705 20.625 21.3333C20.625 23.9617 18.3358 26.0833 15.5 26.0833ZM17.2083 10.25H6.95833C5.07917 10.25 3.54167 8.825 3.54167 7.08333C3.54167 5.34167 5.07917 3.91667 6.95833 3.91667H17.2083C19.0875 3.91667 20.625 5.34167 20.625 7.08333C20.625 8.825 19.0875 10.25 17.2083 10.25Z" fill="white"/>
</svg>
